<?xml version="1.0" encoding="UTF-8" standalone="no"?>
<svg
   xmlns:dc="http://purl.org/dc/elements/1.1/"
   xmlns:cc="http://creativecommons.org/ns#"
   xmlns:rdf="http://www.w3.org/1999/02/22-rdf-syntax-ns#"
   xmlns:svg="http://www.w3.org/2000/svg"
   xmlns="http://www.w3.org/2000/svg"
   id="svg5026"
   version="1.1"
   viewBox="0 0 165 36"
   height="36"
   width="165">
  <metadata
     id="metadata5032">
    <rdf:RDF>
      <cc:Work
         rdf:about="">
        <dc:format>image/svg+xml</dc:format>
        <dc:type
           rdf:resource="http://purl.org/dc/dcmitype/StillImage" />
        <dc:title></dc:title>
      </cc:Work>
    </rdf:RDF>
  </metadata>
  <defs
     id="defs5030" />
  <path
     style="fill:#ffffff"
     id="path5002"
     d="m 63,13.4 v 12 h -3.8 v -12 H 55 v -3.2 h 12 l 0.5,3.2 z" />
  <path
     style="fill:#ffffff"
     id="path5004"
     d="m 81.2,24.9 -3.8,0.6 -3.3,-5.4 h -1 v 5.2 H 69.3 V 10.2 h 5.3 c 3.7,0 5.8,1.7 5.8,4.8 a 4.33,4.33 0 0 1 -2.8,4.3 z m -7,-11.8 H 73 v 4.4 h 1.2 c 1.6,0 2.5,-0.8 2.5,-2.2 0,-1.4 -0.9,-2.2 -2.5,-2.2 z" />
  <path
     style="fill:#ffffff"
     id="path5006"
     d="m 89.3,25.7 c -4.3,0 -7.2,-3.2 -7.2,-7.9 0,-4.7 2.9,-7.9 7.3,-7.9 4.4,0 7.2,3.2 7.2,7.9 0,4.7 -2.9,7.9 -7.3,7.9 z m 0,-12.8 c -2.2,0 -3.5,1.9 -3.5,4.9 0,3 1.3,4.9 3.5,4.9 2.2,0 3.5,-1.9 3.5,-4.9 0,-3 -1.3,-4.9 -3.5,-4.9 z" />
  <path
     style="fill:#ffffff"
     id="path5008"
     d="m 103.5,20.4 h -1 v 5 H 98.8 V 10.2 h 4.9 c 3.7,0 6,1.6 6,4.9 0,3.3 -2.5,5.3 -6.2,5.3 z m 0,-7.3 h -1 v 4.5 h 0.9 c 1.7,0 2.6,-0.7 2.6,-2.3 0,-1.6 -0.9,-2.2 -2.5,-2.2 z" />
  <path
     style="fill:#ffffff"
     id="path5010"
     d="M 116.6,25.4 V 10.2 h 2.1 v 15.2 z" />
  <path
     style="fill:#ffffff"
     id="path5012"
     d="m 128.8,25.7 c -4.3,0 -7,-3.2 -7,-7.9 0,-4.7 2.8,-7.9 7.1,-7.9 a 7.49,7.49 0 0 1 4.3,1.3 l -0.3,2.1 a 6.37,6.37 0 0 0 -4,-1.5 c -3.1,0 -4.9,2.3 -4.9,6 0,3.7 1.8,6 4.9,6 a 7.72,7.72 0 0 0 4.3,-1.5 l 0.3,2 a 8.63,8.63 0 0 1 -4.7,1.4 z" />
  <path
     style="fill:#ffffff"
     id="path5014"
     d="m 140.2,25.6 a 8.68,8.68 0 0 1 -4.2,-1 l 0.3,-2.1 a 7.32,7.32 0 0 0 4,1.3 c 1.6,0 2.7,-0.8 2.7,-2.3 0,-1.5 -0.6,-2 -2.9,-3 -2.9,-1.3 -3.9,-2.2 -3.9,-4.4 0,-2.4 1.9,-4 4.6,-4 a 7.3,7.3 0 0 1 3.5,0.9 l -0.4,2 a 5.17,5.17 0 0 0 -3.2,-1.1 c -1.7,0 -2.5,0.9 -2.5,2 0,1.1 0.6,1.7 2.9,2.8 3,1.4 4,2.4 4,4.6 -0.1,2.6 -2,4.3 -4.9,4.3 z" />
  <path
     style="fill:#ffffff"
     id="path5016"
     d="m 153.6,25.7 c -3.7,0 -5.9,-2.3 -5.9,-6 v -9.5 h 2.1 v 9.2 c 0,2.6 1.2,4.4 3.8,4.4 2.6,0 3.9,-1.6 3.9,-4.3 v -9.2 h 2.1 v 9.3 c 0,3.8 -2.3,6.1 -6,6.1 z" />
  <path
     style="fill:#40b648;fill-opacity:1;fill-rule:evenodd;stroke:#40b648;stroke-width:0.60000002;stroke-linecap:butt;stroke-linejoin:round;stroke-miterlimit:4;stroke-dasharray:none;stroke-opacity:1"
     d="m 15.281956,4.6059528 c 3.365488,2.095522 5.738031,4.5095143 6.559588,7.9183522 1.403289,5.822581 2.104256,12.811366 2.238759,14.974812 0.176245,-2.235724 1.06359,-9.26701 2.238759,-14.974812 0.680774,-3.3065262 3.145349,-5.2087867 6.391962,-7.9183522 -6.077388,4.5014543 -11.773935,3.6818953 -17.429068,0 z"
     id="path4218" />
  <circle
     style="fill:#40b648;fill-opacity:1;stroke-width:0.2;stroke-miterlimit:4;stroke-dasharray:none"
     id="path4220"
     cx="23.998598"
     cy="4.4378276"
     r="2.4378278" />
  <path
     style="fill:#57b7e7;fill-opacity:1;fill-rule:evenodd;stroke:none;stroke-width:0.2;stroke-linecap:butt;stroke-linejoin:miter;stroke-miterlimit:4;stroke-dasharray:none;stroke-opacity:1"
     d="M 13.208399,9.7898404 11.919436,19.821365 c 5.058235,1.513941 10.757161,7.842781 11.992993,14.010507 C 23.684722,28.531719 23.56491,26.397894 23.171583,22.672939 22.371264,15.093606 18.129774,11.888096 13.208399,9.7898404 Z"
     id="path4222" />
  <path
     style="fill:#2f9dd8;fill-opacity:1;fill-rule:evenodd;stroke:none;stroke-width:0.2;stroke-linecap:butt;stroke-linejoin:miter;stroke-miterlimit:4;stroke-dasharray:none;stroke-opacity:1"
     d="m 8.3327425,13.768827 -0.8690683,3.985 -1.4286538,6.550898 C 14.781333,24.120646 20.488718,28.402422 22.567419,32.150608 20.830468,28.38988 17.815156,23.019508 10.350257,20.325743 l 1.008755,-6.276709 z"
     id="path4224" />
  <path
     style="fill:#2c7aab;fill-opacity:1;fill-rule:evenodd;stroke:none;stroke-width:0.2;stroke-linecap:butt;stroke-linejoin:miter;stroke-miterlimit:4;stroke-dasharray:none;stroke-opacity:1"
     d="M 5.3064776,19.036776 1.9999961,28.451834 C 7.1088187,26.941284 13.068677,27.253781 19.821357,29.628716 18.613594,28.649542 16.148547,25.211399 4.9141806,25.369522 l 1.5131369,-6.332746 z"
     id="path4226" />
  <path
     id="path4228"
     d="m 35.15059,9.9579677 1.288963,10.0315253 c -5.058235,1.51394 -10.757161,7.842781 -11.992992,14.010506 0.227707,-5.300153 0.347519,-7.433977 0.740845,-11.158933 0.800319,-7.579332 5.041809,-10.784842 9.963184,-12.8830983 z"
     style="fill:#57b7e7;fill-opacity:1;fill-rule:evenodd;stroke:none;stroke-width:0.2;stroke-linecap:butt;stroke-linejoin:miter;stroke-miterlimit:4;stroke-dasharray:none;stroke-opacity:1" />
  <path
     id="path4230"
     d="m 40.026247,13.936954 2.297722,10.535898 c -8.746313,-0.184079 -14.453698,4.097698 -16.532399,7.845883 1.736952,-3.760728 4.752263,-9.1311 12.217162,-11.824865 l -1.008755,-6.276708 z"
     style="fill:#2f9dd8;fill-opacity:1;fill-rule:evenodd;stroke:none;stroke-width:0.2;stroke-linecap:butt;stroke-linejoin:miter;stroke-miterlimit:4;stroke-dasharray:none;stroke-opacity:1" />
  <path
     id="path4232"
     d="m 43.052512,19.204903 3.306481,9.415058 c -5.108823,-1.510549 -11.068681,-1.198053 -17.821361,1.176882 1.207764,-0.979173 3.67281,-4.417317 14.907177,-4.259194 l -1.513137,-6.332746 z"
     style="fill:#2c7aab;fill-opacity:1;fill-rule:evenodd;stroke:none;stroke-width:0.2;stroke-linecap:butt;stroke-linejoin:miter;stroke-miterlimit:4;stroke-dasharray:none;stroke-opacity:1" />
</svg>
