<svg xmlns="http://www.w3.org/2000/svg" width="150" height="36" viewBox="0 0 150 36"><path d="M50.1,13.4v12H46.3v-12H42.1V10.2h12l.5,3.2Z" fill="#fff"/><path d="M68.3,24.9l-3.8.6-3.3-5.4h-1v5.2H56.4V10.2h5.3c3.7,0,5.8,1.7,5.8,4.8a4.33,4.33,0,0,1-2.8,4.3Zm-7-11.8H60.1v4.4h1.2c1.6,0,2.5-.8,2.5-2.2s-.9-2.2-2.5-2.2Z" fill="#fff"/><path d="M76.4,25.7c-4.3,0-7.2-3.2-7.2-7.9s2.9-7.9,7.3-7.9,7.2,3.2,7.2,7.9S80.8,25.7,76.4,25.7Zm0-12.8c-2.2,0-3.5,1.9-3.5,4.9s1.3,4.9,3.5,4.9,3.5-1.9,3.5-4.9-1.3-4.9-3.5-4.9Z" fill="#fff"/><path d="M90.6,20.4h-1v5H85.9V10.2h4.9c3.7,0,6,1.6,6,4.9S94.3,20.4,90.6,20.4Zm0-7.3h-1v4.5h.9c1.7,0,2.6-.7,2.6-2.3S92.2,13.1,90.6,13.1Z" fill="#fff"/><path d="M103.7,25.4V10.2h2.1V25.4Z" fill="#fff"/><path d="M115.9,25.7c-4.3,0-7-3.2-7-7.9s2.8-7.9,7.1-7.9a7.49,7.49,0,0,1,4.3,1.3l-.3,2.1a6.37,6.37,0,0,0-4-1.5c-3.1,0-4.9,2.3-4.9,6s1.8,6,4.9,6a7.72,7.72,0,0,0,4.3-1.5l.3,2A8.63,8.63,0,0,1,115.9,25.7Z" fill="#fff"/><path d="M127.3,25.6a8.68,8.68,0,0,1-4.2-1l.3-2.1a7.32,7.32,0,0,0,4,1.3c1.6,0,2.7-.8,2.7-2.3s-.6-2-2.9-3c-2.9-1.3-3.9-2.2-3.9-4.4,0-2.4,1.9-4,4.6-4a7.3,7.3,0,0,1,3.5.9l-.4,2a5.17,5.17,0,0,0-3.2-1.1c-1.7,0-2.5.9-2.5,2s.6,1.7,2.9,2.8c3,1.4,4,2.4,4,4.6C132.1,23.9,130.2,25.6,127.3,25.6Z" fill="#fff"/><path d="M140.7,25.7c-3.7,0-5.9-2.3-5.9-6V10.2h2.1v9.2c0,2.6,1.2,4.4,3.8,4.4s3.9-1.6,3.9-4.3V10.3h2.1v9.3C146.7,23.4,144.4,25.7,140.7,25.7Z" fill="#fff"/><path d="M2.2,20.3,20.3,2.2A15.89,15.89,0,0,0,2.2,15.7,11.87,11.87,0,0,0,2.2,20.3Z" fill="#8cc63f"/><path d="M2.2,20.3a16.14,16.14,0,0,0,2.5,6.6L26.8,4.7a15.62,15.62,0,0,0-6.6-2.5Z" fill="#009245"/><path d="M4.7,26.8a16.07,16.07,0,0,0,4.5,4.5L31.4,9.2a16.07,16.07,0,0,0-4.5-4.5Z" fill="#005251"/><path d="M9.2,31.4a15.62,15.62,0,0,0,6.6,2.5L33.9,15.8a16.14,16.14,0,0,0-2.5-6.6Z" fill="#0071bc"/><path d="M33.8,15.7,15.7,33.8A16,16,0,0,0,33.8,20.2,11.36,11.36,0,0,0,33.8,15.7Z" fill="#29abe2"/></svg>
