<svg xmlns="http://www.w3.org/2000/svg" width="280" height="36" viewBox="0 0 280 36"><title>Artboard 1</title><path d="M50.14,13.41v12H46.35v-12h-4.2V10.22h12l.53,3.19Z" fill="#fff"/><path d="M68.33,24.92l-3.85.63-3.32-5.36h-1V25.4H56.38V10.22h5.31c3.67,0,5.83,1.67,5.83,4.79a4.4,4.4,0,0,1-2.82,4.32Zm-7-11.86H60.1v4.42h1.17c1.61,0,2.55-.79,2.55-2.25S62.94,13.06,61.31,13.06Z" fill="#fff"/><path d="M76.38,25.69c-4.35,0-7.21-3.17-7.21-7.86s2.86-7.9,7.26-7.9,7.24,3.17,7.24,7.86S80.81,25.69,76.38,25.69Zm0-12.81c-2.2,0-3.48,1.91-3.48,4.93s1.3,4.93,3.48,4.93,3.47-1.92,3.47-4.93S78.61,12.88,76.41,12.88Z" fill="#fff"/><path d="M90.62,20.36h-1v5H85.89V10.22h4.88c3.7,0,6,1.65,6,4.95S94.29,20.36,90.62,20.36Zm-.07-7.3h-1v4.46h.88c1.68,0,2.6-.72,2.6-2.29S92.22,13.06,90.55,13.06Z" fill="#fff"/><path d="M103.68,25.4V10.22h2.07V25.4Z" fill="#fff"/><path d="M115.94,25.69c-4.27,0-7-3.17-7-7.86s2.79-7.9,7.06-7.9a7.22,7.22,0,0,1,4.31,1.26L120,13.3a6.5,6.5,0,0,0-4-1.48c-3.08,0-4.91,2.34-4.91,6s1.85,6,4.91,6a7.24,7.24,0,0,0,4.27-1.52l.31,2A8,8,0,0,1,115.94,25.69Z" fill="#fff"/><path d="M127.33,25.58a9.18,9.18,0,0,1-4.24-1l.31-2.12a7.37,7.37,0,0,0,4,1.3c1.58,0,2.7-.83,2.7-2.31s-.61-2-2.9-3c-2.86-1.3-3.94-2.25-3.94-4.42,0-2.45,1.87-4,4.62-4a6.68,6.68,0,0,1,3.46.86L131,13a5.38,5.38,0,0,0-3.19-1.12c-1.74,0-2.51.92-2.51,2s.57,1.72,2.88,2.77c3,1.35,4,2.36,4,4.65C132.13,23.93,130.17,25.58,127.33,25.58Z" fill="#fff"/><path d="M140.73,25.69c-3.67,0-5.87-2.34-5.87-6V10.22h2.07v9.17c0,2.64,1.18,4.4,3.8,4.4s3.87-1.58,3.87-4.33V10.22h2.07v9.33C146.67,23.38,144.41,25.69,140.73,25.69Z" fill="#fff"/><g opacity="0.6"><path d="M160.43,25.4V10.22h2.06V23.51H168l.29,1.89Z" fill="#fff"/><path d="M178.53,20.36H171.4c.07,2.44,1.24,3.59,3.06,3.59a5.82,5.82,0,0,0,3.77-1.5l.28,1.76a6.52,6.52,0,0,1-4.2,1.41c-2.73,0-4.86-1.65-4.86-5.5,0-3.37,2-5.44,4.62-5.44,3.05,0,4.46,2.36,4.46,5.26ZM174,16.22c-1.21,0-2.24.86-2.55,2.67h5.06C176.31,17.19,175.56,16.22,174,16.22Z" fill="#fff"/><path d="M184.21,25.62a8.54,8.54,0,0,1-3.83-1l.29-1.85A6.55,6.55,0,0,0,184.36,24c1.35,0,2.14-.5,2.14-1.38s-.6-1.32-2.49-1.79c-2.46-.61-3.45-1.36-3.45-3.23,0-1.67,1.4-2.91,3.69-2.91a8.5,8.5,0,0,1,3.46.71l-.31,1.85a6.67,6.67,0,0,0-3.19-.91c-1.19,0-1.81.47-1.81,1.21s.53,1.11,2.18,1.52c2.6.66,3.77,1.41,3.77,3.41S186.92,25.62,184.21,25.62Z" fill="#fff"/><path d="M193.84,25.62a8.53,8.53,0,0,1-3.82-1l.28-1.85A6.59,6.59,0,0,0,194,24c1.34,0,2.13-.5,2.13-1.38s-.59-1.32-2.48-1.79c-2.47-.61-3.46-1.36-3.46-3.23,0-1.67,1.41-2.91,3.7-2.91a8.46,8.46,0,0,1,3.45.71l-.3,1.85a6.74,6.74,0,0,0-3.2-.91c-1.18,0-1.8.47-1.8,1.21s.53,1.11,2.18,1.52c2.59.66,3.76,1.41,3.76,3.41S196.55,25.62,193.84,25.62Z" fill="#fff"/><path d="M204.6,25.62c-2.79,0-4.82-2-4.82-5.46s2-5.48,4.82-5.48,4.89,2,4.89,5.48S207.42,25.62,204.6,25.62Zm0-9.29c-1.89,0-2.84,1.63-2.84,3.83s1,3.83,2.84,3.83,2.91-1.63,2.91-3.83S206.49,16.33,204.6,16.33Z" fill="#fff"/><path d="M218.57,25.4V18.25c0-1.08-.46-1.81-1.6-1.81a4.51,4.51,0,0,0-3,1.7V25.4h-2V14.9h1.56l.25,1.52a5.64,5.64,0,0,1,3.71-1.74,2.79,2.79,0,0,1,3,3.08V25.4Z" fill="#fff"/><path d="M232.37,19.24h-1.61V25.4h-2.07V10.22h4c3.21,0,5.15,1.56,5.15,4.38C237.87,17.7,235.67,19.24,232.37,19.24Zm.24-7.2h-1.85v5.37h1.72c2.06,0,3.3-.86,3.3-2.75C235.78,12.92,234.68,12,232.61,12Z" fill="#fff"/><path d="M240.35,25.4V9.82l2-.31V25.4Z" fill="#fff"/><path d="M251.9,25.4,251.68,24a4.94,4.94,0,0,1-3.7,1.63,2.8,2.8,0,0,1-3.08-2.93c0-2.61,2.25-3.65,6.63-4.11v-.44c0-1.32-.79-1.78-2-1.78a9,9,0,0,0-3.64.9l-.26-1.7a10.24,10.24,0,0,1,4.07-.88c2.55,0,3.79,1,3.79,3.37V25.4Zm-.37-5.32c-3.88.37-4.69,1.43-4.69,2.5A1.37,1.37,0,0,0,248.4,24a4.46,4.46,0,0,0,3.13-1.47Z" fill="#fff"/><path d="M263.12,25.4V18.25c0-1.08-.46-1.81-1.6-1.81a4.51,4.51,0,0,0-3,1.7V25.4h-2V14.9h1.56l.25,1.52A5.62,5.62,0,0,1,262,14.68a2.79,2.79,0,0,1,3,3.08V25.4Z" fill="#fff"/><path d="M271.3,25.62a8.53,8.53,0,0,1-3.82-1l.28-1.85a6.59,6.59,0,0,0,3.7,1.21c1.34,0,2.13-.5,2.13-1.38s-.59-1.32-2.48-1.79c-2.47-.61-3.46-1.36-3.46-3.23,0-1.67,1.41-2.91,3.7-2.91a8.46,8.46,0,0,1,3.45.71l-.3,1.85a6.7,6.7,0,0,0-3.2-.91c-1.18,0-1.8.47-1.8,1.21s.53,1.11,2.18,1.52c2.6.66,3.76,1.41,3.76,3.41S274,25.62,271.3,25.62Z" fill="#fff"/></g><path d="M2.16,20.26l18.1-18.1a16,16,0,0,0-18.1,18.1Z" fill="#8cc63f"/><path d="M2.16,20.26a16,16,0,0,0,2.49,6.56L26.82,4.65a16,16,0,0,0-6.56-2.49Z" fill="#009245"/><path d="M4.65,26.82a16.28,16.28,0,0,0,4.53,4.53L31.35,9.18a16.28,16.28,0,0,0-4.53-4.53Z" fill="#005251"/><path d="M9.18,31.35a16,16,0,0,0,6.56,2.49l18.1-18.1a16,16,0,0,0-2.49-6.56Z" fill="#0071bc"/><path d="M33.84,15.74l-18.1,18.1a16,16,0,0,0,18.1-18.1Z" fill="#29abe2"/></svg>